<svg width="1000" height="1000" viewBox="0 0 1000 1000" xmlns="http://www.w3.org/2000/svg">
  <defs>
    <radialGradient id="particleGlow1" cx="50%" cy="50%" r="50%" fx="50%" fy="50%">
      <stop offset="0%" stop-color="#0ff7ff" stop-opacity="0.6" />
      <stop offset="100%" stop-color="#0ff7ff" stop-opacity="0" />
    </radialGradient>
    
    <radialGradient id="particleGlow2" cx="50%" cy="50%" r="50%" fx="50%" fy="50%">
      <stop offset="0%" stop-color="#ff34b3" stop-opacity="0.6" />
      <stop offset="100%" stop-color="#ff34b3" stop-opacity="0" />
    </radialGradient>
    
    <radialGradient id="particleGlow3" cx="50%" cy="50%" r="50%" fx="50%" fy="50%">
      <stop offset="0%" stop-color="#9a30fe" stop-opacity="0.6" />
      <stop offset="100%" stop-color="#9a30fe" stop-opacity="0" />
    </radialGradient>
    
    <filter id="blur" x="-50%" y="-50%" width="200%" height="200%">
      <feGaussianBlur in="SourceGraphic" stdDeviation="1" />
    </filter>
  </defs>
  
  <!-- 半透明背景 -->
  <rect width="100%" height="100%" fill="none" />
  
  <!-- 粒子 -->
  <!-- 小点 -->
  <circle cx="100" cy="100" r="1" fill="#0ff7ff" fill-opacity="0.8" />
  <circle cx="230" cy="45" r="1" fill="#0ff7ff" fill-opacity="0.7" />
  <circle cx="350" cy="180" r="1" fill="#0ff7ff" fill-opacity="0.6" />
  <circle cx="420" cy="120" r="1" fill="#ff34b3" fill-opacity="0.7" />
  <circle cx="550" cy="80" r="1" fill="#0ff7ff" fill-opacity="0.8" />
  <circle cx="640" cy="150" r="1" fill="#9a30fe" fill-opacity="0.7" />
  <circle cx="720" cy="70" r="1" fill="#0ff7ff" fill-opacity="0.6" />
  <circle cx="850" cy="120" r="1" fill="#0ff7ff" fill-opacity="0.7" />
  <circle cx="930" cy="190" r="1" fill="#ff34b3" fill-opacity="0.8" />
  
  <circle cx="50" cy="250" r="1" fill="#ff34b3" fill-opacity="0.7" />
  <circle cx="180" cy="280" r="1" fill="#0ff7ff" fill-opacity="0.8" />
  <circle cx="270" cy="330" r="1" fill="#0ff7ff" fill-opacity="0.6" />
  <circle cx="370" cy="280" r="1" fill="#9a30fe" fill-opacity="0.7" />
  <circle cx="480" cy="390" r="1" fill="#0ff7ff" fill-opacity="0.8" />
  <circle cx="590" cy="320" r="1" fill="#ff34b3" fill-opacity="0.7" />
  <circle cx="680" cy="250" r="1" fill="#0ff7ff" fill-opacity="0.6" />
  <circle cx="800" cy="380" r="1" fill="#0ff7ff" fill-opacity="0.8" />
  <circle cx="920" cy="290" r="1" fill="#9a30fe" fill-opacity="0.7" />
  
  <circle cx="120" cy="450" r="1" fill="#0ff7ff" fill-opacity="0.8" />
  <circle cx="240" cy="500" r="1" fill="#ff34b3" fill-opacity="0.7" />
  <circle cx="330" cy="420" r="1" fill="#0ff7ff" fill-opacity="0.6" />
  <circle cx="450" cy="470" r="1" fill="#0ff7ff" fill-opacity="0.8" />
  <circle cx="520" cy="510" r="1" fill="#9a30fe" fill-opacity="0.7" />
  <circle cx="640" cy="480" r="1" fill="#0ff7ff" fill-opacity="0.6" />
  <circle cx="730" cy="430" r="1" fill="#ff34b3" fill-opacity="0.8" />
  <circle cx="840" cy="520" r="1" fill="#0ff7ff" fill-opacity="0.7" />
  <circle cx="960" cy="460" r="1" fill="#0ff7ff" fill-opacity="0.6" />
  
  <circle cx="60" cy="580" r="1" fill="#9a30fe" fill-opacity="0.7" />
  <circle cx="190" cy="640" r="1" fill="#0ff7ff" fill-opacity="0.8" />
  <circle cx="280" cy="590" r="1" fill="#ff34b3" fill-opacity="0.7" />
  <circle cx="390" cy="650" r="1" fill="#0ff7ff" fill-opacity="0.6" />
  <circle cx="490" cy="600" r="1" fill="#0ff7ff" fill-opacity="0.8" />
  <circle cx="580" cy="670" r="1" fill="#9a30fe" fill-opacity="0.7" />
  <circle cx="690" cy="620" r="1" fill="#0ff7ff" fill-opacity="0.6" />
  <circle cx="810" cy="670" r="1" fill="#ff34b3" fill-opacity="0.8" />
  <circle cx="940" cy="580" r="1" fill="#0ff7ff" fill-opacity="0.7" />
  
  <circle cx="140" cy="720" r="1" fill="#0ff7ff" fill-opacity="0.8" />
  <circle cx="230" cy="780" r="1" fill="#9a30fe" fill-opacity="0.7" />
  <circle cx="340" cy="710" r="1" fill="#0ff7ff" fill-opacity="0.6" />
  <circle cx="430" cy="790" r="1" fill="#ff34b3" fill-opacity="0.8" />
  <circle cx="540" cy="750" r="1" fill="#0ff7ff" fill-opacity="0.7" />
  <circle cx="650" cy="800" r="1" fill="#0ff7ff" fill-opacity="0.6" />
  <circle cx="740" cy="730" r="1" fill="#9a30fe" fill-opacity="0.8" />
  <circle cx="840" cy="770" r="1" fill="#0ff7ff" fill-opacity="0.7" />
  <circle cx="930" cy="720" r="1" fill="#ff34b3" fill-opacity="0.6" />
  
  <circle cx="70" cy="870" r="1" fill="#0ff7ff" fill-opacity="0.7" />
  <circle cx="180" cy="930" r="1" fill="#0ff7ff" fill-opacity="0.8" />
  <circle cx="290" cy="890" r="1" fill="#9a30fe" fill-opacity="0.7" />
  <circle cx="400" cy="950" r="1" fill="#0ff7ff" fill-opacity="0.6" />
  <circle cx="510" cy="880" r="1" fill="#ff34b3" fill-opacity="0.8" />
  <circle cx="620" cy="940" r="1" fill="#0ff7ff" fill-opacity="0.7" />
  <circle cx="710" cy="900" r="1" fill="#0ff7ff" fill-opacity="0.6" />
  <circle cx="830" cy="960" r="1" fill="#9a30fe" fill-opacity="0.8" />
  <circle cx="950" cy="850" r="1" fill="#0ff7ff" fill-opacity="0.7" />
  
  <!-- 中等发光粒子 -->
  <circle cx="150" cy="150" r="3" fill="url(#particleGlow1)" filter="url(#blur)" />
  <circle cx="500" cy="200" r="4" fill="url(#particleGlow2)" filter="url(#blur)" />
  <circle cx="850" cy="250" r="3" fill="url(#particleGlow1)" filter="url(#blur)" />
  <circle cx="200" cy="400" r="4" fill="url(#particleGlow3)" filter="url(#blur)" />
  <circle cx="600" cy="450" r="3" fill="url(#particleGlow1)" filter="url(#blur)" />
  <circle cx="900" cy="500" r="4" fill="url(#particleGlow2)" filter="url(#blur)" />
  <circle cx="250" cy="650" r="3" fill="url(#particleGlow3)" filter="url(#blur)" />
  <circle cx="650" cy="700" r="4" fill="url(#particleGlow1)" filter="url(#blur)" />
  <circle cx="950" cy="750" r="3" fill="url(#particleGlow2)" filter="url(#blur)" />
  <circle cx="300" cy="900" r="4" fill="url(#particleGlow1)" filter="url(#blur)" />
  <circle cx="700" cy="950" r="3" fill="url(#particleGlow3)" filter="url(#blur)" />
  
  <!-- 大发光粒子 -->
  <circle cx="300" cy="100" r="6" fill="url(#particleGlow1)" filter="url(#blur)" opacity="0.7" />
  <circle cx="750" cy="300" r="8" fill="url(#particleGlow2)" filter="url(#blur)" opacity="0.6" />
  <circle cx="150" cy="500" r="7" fill="url(#particleGlow3)" filter="url(#blur)" opacity="0.7" />
  <circle cx="600" cy="600" r="8" fill="url(#particleGlow1)" filter="url(#blur)" opacity="0.6" />
  <circle cx="900" cy="800" r="6" fill="url(#particleGlow2)" filter="url(#blur)" opacity="0.7" />
  <circle cx="400" cy="900" r="7" fill="url(#particleGlow3)" filter="url(#blur)" opacity="0.6" />
</svg> 
